<svg width="214" height="449" viewBox="0 0 214 449" fill="none" xmlns="http://www.w3.org/2000/svg">
<ellipse cx="156.5" cy="270" rx="34.5" ry="43" fill="#EB9A22"/>
<ellipse cx="57.5" cy="270" rx="34.5" ry="43" fill="#EB9A22"/>
<rect x="39" y="140" width="134" height="187" rx="67" fill="#FFA828"/>
<ellipse cx="106" cy="108.5" rx="71" ry="61.5" fill="#FFA828"/>
<path d="M99.5001 312.5C203 362.5 77.9836 355.48 69 376C60.0163 396.52 228 407.5 99.5001 434" stroke="#FFA828" stroke-width="30"/>
<path d="M35.7526 43.2176C34.4721 36.3326 41.1998 30.6874 47.7579 33.144L89.0785 48.622C95.5315 51.0392 96.9853 59.5151 91.7065 63.9445L58.4535 91.8471C53.1748 96.2765 45.0801 93.3729 43.8202 86.5982L35.7526 43.2176Z" fill="#FFA828"/>
<path d="M166.242 33.144C172.8 30.6874 179.528 36.3326 178.247 43.2176L170.18 86.5982C168.92 93.3729 160.825 96.2764 155.546 91.8471L122.293 63.9445C117.015 59.5151 118.468 51.0392 124.922 48.622L166.242 33.144Z" fill="#FFA828"/>
<ellipse cx="106.5" cy="201.5" rx="40.5" ry="11.5" fill="#EB9A22"/>
<ellipse cx="108" cy="84.5" rx="11" ry="37.5" fill="#EB9A22"/>
<ellipse cx="79.9502" cy="85.1634" rx="7.5" ry="37.5" transform="rotate(15 79.9502 85.1634)" fill="#EB9A22"/>
<ellipse cx="135.95" cy="85.1634" rx="7.5" ry="37.5" transform="rotate(-15 135.95 85.1634)" fill="#EB9A22"/>
<ellipse cx="109.5" cy="265.5" rx="40.5" ry="11.5" fill="#EB9A22"/>
<ellipse cx="106.5" cy="233.5" rx="40.5" ry="11.5" fill="#EB9A22"/>
<ellipse cx="102.5" cy="433.5" rx="19.5" ry="14.5" fill="#FFA828"/>
</svg>
